<svg version="1.1" xmlns="http://www.w3.org/2000/svg" xmlns:xlink="http://www.w3.org/1999/xlink" width="34.78959" height="8.45896" viewBox="0,0,34.78959,8.45896"><g transform="translate(-222.76885,-175.43096)"><g data-paper-data="{&quot;isPaintingLayer&quot;:true}" fill="#ffffff" fill-rule="nonzero" stroke="#ffffff" stroke-width="2" stroke-linecap="butt" stroke-linejoin="miter" stroke-miterlimit="10" stroke-dasharray="" stroke-dashoffset="0" style="mix-blend-mode: normal"><path d="M225.42257,182.05522c-1.0179,1.15 -1.79309,-0.04906 -1.63263,-1.08662c0.19945,-1.28969 1.13077,-2.07875 1.91269,-1.84119c0.25985,0.07894 0.27417,0.56222 0.41126,0.84331c0,0 0.02012,0.05579 0.03259,0.14786c0.83778,0.128 1.51313,-0.18141 2.36888,-0.38653c1.28687,-0.30845 2.70479,0.01278 3.94765,0.00195l0.47978,-0.0915c0,0 0.04859,-0.00868 0.11458,-0.00165c0.19009,-0.08814 0.34593,-0.03632 0.34593,-0.03632c0.92726,0.34418 2.26629,-0.22553 3.33665,-0.41521c0.29031,-0.05144 0.5807,-0.0868 0.87096,-0.11255c0.10508,-0.04567 0.21013,-0.05534 0.30278,-0.02367c1.11114,-0.07611 2.21942,-0.04477 3.31337,-0.27139c1.35965,-0.28168 2.80477,-0.77919 4.1884,-0.97241c0.32094,-0.07974 0.63442,-0.12528 0.94532,-0.15867c1.66997,-0.63004 3.3304,-1.14462 4.92193,-1.1604l0.01292,0.01193l0.00306,-0.01105l0.5376,0.04134c0.07574,0.0033 0.14672,0.02945 0.20754,0.0808c0.01385,0.01169 0.02684,0.02442 0.03899,0.0381c0.31042,0.04776 0.61899,0.10774 0.93852,0.15527c0.63111,0.09391 1.40434,-0.12129 2.00539,0.0988c1.94756,0.71313 1.43357,4.5309 -0.82514,5.93116c-2.54352,1.38592 -4.71631,0.25423 -6.94214,-0.06799c-2.06171,-0.29846 -4.21712,0.06329 -6.25562,-0.22779c-2.21986,-0.17969 -4.75022,-0.36747 -6.76169,-1.11153l-0.58257,0.21544c0,0 -0.50749,0.17028 -0.53682,-0.42818c-0.09369,-0.01535 -0.186,-0.0356 -0.27675,-0.06137c-0.07952,0.03693 -0.13469,0.04678 -0.13469,0.04678l-0.61986,0.10478c-1.15543,0.009 -2.5552,-0.34592 -3.74727,-0.02808c-0.95814,0.25547 -1.75782,0.53482 -2.68612,0.4045c0,0 -0.02522,-0.0037 -0.06213,-0.01758c-0.02429,0.14548 -0.07509,0.27863 -0.17338,0.38966zM225.00173,180.61499c-0.00152,-0.00751 -0.00251,-0.00661 -0.00333,0.0004zM254.74834,180.66435c-0.02864,0.10242 -0.07164,0.2054 -0.12898,0.30322c-0.05183,0.08842 -0.11092,0.16502 -0.17398,0.22837c-0.00032,0.00115 -0.00064,0.00231 -0.00096,0.00346c0.25313,-0.20098 0.42378,-0.48213 0.52098,-0.78946c-0.06929,0.08744 -0.14212,0.17273 -0.21707,0.2544z"/></g></g></svg>